<?xml version="1.0" encoding="UTF-8"?>
<svg width="173px" height="30px" viewBox="0 0 173 30" version="1.1" xmlns="http://www.w3.org/2000/svg" xmlns:xlink="http://www.w3.org/1999/xlink">
    <title>Group 3</title>
    <g id="Page-1" stroke="none" stroke-width="1" fill="none" fill-rule="evenodd">
        <g id="White-Background" transform="translate(-77.000000, -54.000000)" fill="#FF0077">
            <g id="Group-3" transform="translate(77.000000, 54.000000)">
                <path d="M20,10 L20,0 L30,0 L30,10 L20,10 L20,20 L10,20 L10,30 L0,30 L0,20 L10,20 L10,10 L20,10 Z" id="Combined-Shape"></path>
                <path d="M50.8567128,22.7115385 L50.8567128,15.2733516 L54.6291258,21.2898352 L56.4837199,21.2898352 L60.2772079,15.0673077 L60.3193577,22.7115385 L64.1549955,22.7115385 L64.1128457,8.28846154 L60.6776316,8.28846154 L55.6196476,16.6126374 L50.4352141,8.28846154 L47,8.28846154 L47,22.7115385 L50.8567128,22.7115385 Z M74.7908118,22.7115385 L74.7908118,8.28846154 L70.617975,8.28846154 L70.617975,22.7115385 L74.7908118,22.7115385 Z M84.5204059,22.7115385 L87.5341213,18.2403846 L90.5899866,22.7115385 L95.3950714,22.7115385 L89.9155888,15.2527473 L95.0578724,8.28846154 L90.5478368,8.28846154 L87.639496,12.4505495 L84.6890054,8.28846154 L79.9892953,8.28846154 L85.1315789,15.4175824 L79.757471,22.7115385 L84.5204059,22.7115385 Z M107.000335,22.7115385 L107.000335,11.5233516 L111.51037,11.5233516 L111.51037,8.28846154 L98.2963872,8.28846154 L98.2963872,11.5233516 L102.827498,11.5233516 L102.827498,22.7115385 L107.000335,22.7115385 Z M120.755241,22.7115385 L120.755241,8.28846154 L116.582404,8.28846154 L116.582404,22.7115385 L120.755241,22.7115385 Z M138.45116,22.7115385 L138.45116,19.4766484 L131.412132,19.4766484 L131.412132,8.28846154 L127.239295,8.28846154 L127.239295,22.7115385 L138.45116,22.7115385 Z M155.451606,22.7115385 L155.451606,19.5590659 L147.73818,19.5590659 L147.73818,16.9217033 L154.292484,16.9217033 L154.292484,13.8722527 L147.73818,13.8722527 L147.73818,11.4409341 L155.177632,11.4409341 L155.177632,8.28846154 L143.607493,8.28846154 L143.607493,22.7115385 L155.451606,22.7115385 Z M166.466771,23 C167.871766,23 169.066012,22.790522 170.049509,22.3715659 C171.033006,21.9526099 171.770629,21.3928571 172.262377,20.6923077 C172.754126,19.9917582 173,19.2087912 173,18.3434066 C173,17.3406593 172.729538,16.5473901 172.188615,15.9635989 C171.647692,15.3798077 171.008419,14.9539835 170.270796,14.6861264 C169.533174,14.4182692 168.602364,14.1675824 167.478368,13.9340659 C166.480821,13.728022 165.757248,13.5288462 165.307649,13.3365385 C164.858051,13.1442308 164.633252,12.8557692 164.633252,12.4711538 C164.633252,12.0865385 164.822926,11.7740385 165.202275,11.5336538 C165.581624,11.2932692 166.185772,11.1730769 167.014719,11.1730769 C168.335415,11.1730769 169.69826,11.543956 171.103256,12.2857143 L171.103256,12.2857143 L172.388827,9.25686813 C171.672279,8.84478022 170.843332,8.53228022 169.901985,8.31936813 C168.960638,8.10645604 168.005241,8 167.035794,8 C165.616748,8 164.41899,8.20604396 163.442518,8.61813187 C162.466046,9.03021978 161.731936,9.58997253 161.240187,10.2973901 C160.748439,11.0048077 160.502565,11.7980769 160.502565,12.6771978 C160.502565,13.6799451 160.769514,14.4766484 161.303412,15.0673077 C161.83731,15.657967 162.476583,16.0872253 163.221231,16.3550824 C163.965879,16.6229396 164.893176,16.8736264 166.003122,17.1071429 C167.014719,17.3269231 167.748829,17.5364011 168.205453,17.7355769 C168.662076,17.9347527 168.890388,18.2403846 168.890388,18.6524725 C168.890388,19.4354396 168.089541,19.8269231 166.487846,19.8269231 C165.644848,19.8269231 164.787801,19.6964286 163.916704,19.4354396 C163.045607,19.1744505 162.279884,18.831044 161.619536,18.4052198 L161.619536,18.4052198 L160.249665,21.4134615 C160.952163,21.8942308 161.86541,22.2788462 162.989407,22.5673077 C164.113403,22.8557692 165.272525,23 166.466771,23 Z" id="MIXTILES" fill-rule="nonzero"></path>
            </g>
        </g>
    </g>
</svg>